<svg width="47" height="63" viewBox="0 0 47 63" fill="none" xmlns="http://www.w3.org/2000/svg">
<path d="M46.786 25.362C47.7594 18.8644 42.8087 15.3707 36.0445 13.0395L38.2393 4.2355L32.8825 2.9025L30.7435 11.474C29.3361 11.1206 27.8915 10.792 26.45 10.4634L28.6045 1.8361L23.2477 0.5L21.0529 9.3009C19.8873 9.0343 18.7403 8.7739 17.6305 8.4949L17.6367 8.467L10.2463 6.6225L8.82027 12.3451C8.82027 12.3451 12.7976 13.2565 12.7139 13.3123C14.8839 13.8548 15.2745 15.2901 15.2094 16.4309L12.7108 26.4594C12.8596 26.4966 13.0518 26.5524 13.2688 26.6361L12.7015 26.4966L9.19847 40.5458C8.93187 41.203 8.25917 42.1919 6.74017 41.8168C6.79597 41.8943 2.84657 40.8465 2.84657 40.8465L0.186768 46.9783L7.16177 48.7174C8.45757 49.0429 9.72857 49.3839 10.9779 49.7032L8.76137 58.6064L14.1151 59.9394L16.3099 51.1354C17.7731 51.5291 19.1929 51.8949 20.5817 52.2421L18.3931 61.0089L23.7499 62.3419L25.9664 53.4573C35.1052 55.1871 41.9748 54.4896 44.8671 46.225C47.1983 39.5724 44.7524 35.7315 39.9443 33.2298C43.4473 32.4238 46.0823 30.1205 46.786 25.362ZM34.541 42.5298C32.8887 49.1855 21.6822 45.5864 18.049 44.6843L20.994 32.8888C24.6272 33.7971 36.2739 35.592 34.541 42.5298ZM36.1995 25.2659C34.6898 31.3202 25.365 28.2419 22.3425 27.4886L25.0085 16.7936C28.031 17.5469 37.7743 18.9512 36.1995 25.2659Z" fill="white"/>
</svg>
